<?xml version="1.0" standalone="no"?>
<!DOCTYPE svg PUBLIC "-//W3C//DTD SVG 20010904//EN"
 "http://www.w3.org/TR/2001/REC-SVG-20010904/DTD/svg10.dtd">
<svg version="1.0" xmlns="http://www.w3.org/2000/svg"
 width="70.000000pt" height="70.000000pt" viewBox="0 0 70.000000 70.000000"
 preserveAspectRatio="xMidYMid meet">
<metadata>
Created by potrace 1.14, written by Peter Selinger 2001-2017
</metadata>
<g transform="translate(0.000000,70.000000) scale(0.100000,-0.100000)"
fill="#000000" stroke="none">
<path d="M142 631 c-9 -6 -12 -43 -10 -137 3 -107 6 -129 18 -129 12 0 16 17
18 83 l3 84 20 -26 c24 -30 43 -33 55 -8 6 11 10 -6 14 -53 4 -53 9 -70 20
-70 19 0 26 75 10 106 -8 15 -9 19 -1 15 12 -8 15 24 5 73 -8 39 -35 41 -62 4
l-20 -27 -21 41 c-24 47 -32 55 -49 44z"/>
<path d="M419 623 c-16 -4 -33 -45 -44 -106 -4 -26 0 -50 14 -81 16 -38 26
-47 61 -57 35 -11 46 -10 68 2 34 19 52 54 52 102 0 95 -72 162 -151 140z m74
-61 c50 -53 45 -142 -9 -142 -43 0 -64 26 -64 79 0 43 21 91 39 91 4 0 19 -13
34 -28z"/>
</g>
</svg>
